<?xml version="1.0" encoding="UTF-8"?>
<svg id="_图层_2" data-name="图层 2" xmlns="http://www.w3.org/2000/svg" viewBox="0 0 223 148.67">
  <defs>
    <style>
      .cls-1 {
        fill: #e6002d;
      }

      .cls-1, .cls-2, .cls-3 {
        stroke-width: 0px;
      }

      .cls-2 {
        fill: #004098;
      }

      .cls-3 {
        fill: #f6ab00;
      }
    </style>
  </defs>
  <g id="_图层_1-2" data-name="图层 1">
    <g>
      <path class="cls-1" d="M106.02,80.99l-35.36-11.15,32.51-12.99-.69-3.88c-14.07-2.88-42.57-7.6-42.57-7.6l-17.8-.32-3.75,2.28c9.41,4.91,11.87,19.04,12.16,24.16.45,7.34,1.17,27.14,1.17,27.14l4.71,3.21,50.14-16.58-.53-4.26ZM57.45,65.96l-.38-11.67s3.44-1.4,12.61-1.53c10.89-.17,26.25,2.26,26.25,2.26,0,0,2.1.37,0,1.31-12.54,5.36-29.05,9.01-32.97,9.45-2.01.2-5.52.18-5.52.18ZM96.85,83.34s-1.19.62-15.29,4.12c-18.49,4.74-23.91,2.82-23.91,2.82v-15.5s7.19-.26,13.59.63c6.38.93,24.46,6.19,25.61,6.51,1.7.73,0,1.41,0,1.41Z"/>
      <g>
        <path class="cls-2" d="M94.36,13.55c4.8,0,39.32,0,33.66,0-13.88,35.86-15.43,118.52-15.43,118.52l-1,1.92-1.08-1.83s-1.77-84.35-16.15-118.6Z"/>
        <path class="cls-2" d="M117.44,62.17s21.67,3.77,46.85,3.87v-21h17.97v1.44c-2.53,2.93-10.23,11.54-11.59,26.54-1.2,13.07-1.05,26.2-1.05,26.2l-5.21,3.29v-32.96s-31.01.56-48.28,4.76c-.76-7.92,1.31-12.14,1.31-12.14Z"/>
        <path class="cls-2" d="M0,81.52v-14.46L111.51,0l111.49,67.06v14.46l-111.49,67.15L0,81.52ZM111.51,132.71l106.76-63.87L111.51,4.49,4.73,68.84l106.79,63.87h0Z"/>
      </g>
      <g>
        <path class="cls-3" d="M96.99,20.77s-12.23,4.22-10.75,13.32c1.53,9.13,21.02,10.82,21.02,10.82,0,0,11.92,1.13,15.38,2.6,5.09,2.15,3.97,5.68.72,7.89-1.62,1.11-4.16,1.62-5.14,1.95l-.55,4.37c2.01-.5,7.5-1.53,10.99-4.49,4.4-3.38,4.06-10.88-3.54-13.81-4.42-1.82-15.96-2.86-22.79-4.36-3.25-.58-12.38-3.21-9.15-9.02,2.51-3.48,5.4-3.78,5.4-3.78l-1.6-5.49Z"/>
        <path class="cls-3" d="M115.43,82.1c1.24.38,3.18,1.2,4.08,2.19,2.82,2.88,1.41,5.17-1.03,7.04-1.24.99-3.94,2.27-3.94,2.27l-.24,3.26c1.91-.73,5.37-2.14,7.93-4.32,3.46-2.87,4.13-8.18-.69-11.35-1.08-.74-3.42-1.76-5.66-2.46,0,0-2.79-.91-8.77-2.11-2.89-.47-8.34-2.97-6.21-6.88,1.43-2.39,3.58-3.47,4.85-3.9l-.53-4.16c-1.89.74-9.99,4.09-9.15,10.62.6,4.85,7.43,7.15,11.35,7.94,3.89.67,6.74,1.46,8,1.85Z"/>
        <path class="cls-3" d="M141.16,28.73c-.62-.81-2.22-2.76-2.22-2.76,0,0-3.82-1.09-5.66-1.95-3.13-1.54-5.9-2.44-7.79-2.98l-1.41,5.06c2.53.84,5.52,2.14,7.41,3.41,1.84,1.24,3.51,2.87,3.51,2.87l5.26.78s.72-.79,1.08-1.56l-.17-2.86ZM136.17,29.25l-.64-1.59,2.05.53.38,1.32-1.79-.26Z"/>
        <path class="cls-3" d="M108.7,96.3s-5.18,2.35-4.92,7.53c.36,4.53,6.74,7.46,7.55,7.88.81.36,4.11,1.91,3.99,4.59,0,1.48-.67,3.02-2.32,4.09l-.12,1.87s4.23-2.16,4.44-6.16c-.12-4.04-3.85-5.86-5.81-6.9-2.39-1.29-4.75-3.44-4.75-5.85,0-2.58,2.15-3.83,2.15-3.83l-.22-3.22Z"/>
      </g>
    </g>
  </g>
</svg>