<?xml version="1.0" encoding="UTF-8"?>
<svg id="_图层_2" data-name="图层 2" xmlns="http://www.w3.org/2000/svg" viewBox="0 0 559.94 149.05">
  <defs>
    <style>
      .cls-1 {
        fill: #e6002d;
      }

      .cls-1, .cls-2, .cls-3, .cls-4 {
        stroke-width: 0px;
      }

      .cls-2 {
        fill: #004098;
      }

      .cls-3 {
        fill: #595757;
      }

      .cls-4 {
        fill: #f6ab00;
      }
    </style>
  </defs>
  <g id="_图层_1-2" data-name="图层 1">
    <g>
      <path class="cls-3" d="M550.78,0c1.57,0,3.07.39,4.52,1.18,1.44.78,2.58,1.91,3.4,3.38.83,1.47,1.24,3,1.24,4.6s-.4,3.11-1.21,4.56c-.81,1.45-1.94,2.57-3.38,3.38-1.45.81-2.97,1.21-4.56,1.21s-3.11-.4-4.56-1.21c-1.45-.81-2.57-1.94-3.38-3.38-.81-1.45-1.21-2.97-1.21-4.56s.41-3.13,1.24-4.6c.82-1.47,1.96-2.59,3.4-3.38,1.44-.79,2.95-1.18,4.52-1.18ZM550.79,1.79c-1.26,0-2.47.32-3.62.94-1.16.63-2.07,1.54-2.73,2.71-.67,1.18-1,2.41-1,3.71s.32,2.51.97,3.67c.65,1.16,1.55,2.07,2.72,2.72,1.16.65,2.38.98,3.66.98s2.5-.33,3.66-.98c1.16-.65,2.07-1.56,2.72-2.72.65-1.16.98-2.39.98-3.67s-.33-2.53-1-3.71c-.67-1.18-1.58-2.08-2.74-2.71-1.16-.63-2.37-.94-3.62-.94ZM546.65,14.05V4.34h1.97c1.85,0,2.88,0,3.11.02.65.06,1.16.19,1.52.39.36.2.67.51.91.93.24.42.37.88.37,1.39,0,.7-.23,1.3-.69,1.8-.46.5-1.1.81-1.93.93.29.11.52.23.68.37.16.13.38.38.66.75.07.1.31.49.72,1.18l1.15,1.96h-2.44l-.81-1.58c-.55-1.06-1-1.73-1.36-2s-.81-.41-1.36-.41h-.51v3.99h-1.97ZM548.62,8.53h.8c1.14,0,1.85-.04,2.12-.13.27-.09.49-.24.65-.46.16-.22.24-.47.24-.75s-.08-.51-.23-.72c-.15-.21-.37-.36-.66-.45-.29-.09-.99-.14-2.12-.14h-.8v2.65Z"/>
      <g>
        <g>
          <path class="cls-3" d="M247.14,41.83h11.98c2.63,0,4.87.4,6.72,1.21,1.85.8,3.36,1.88,4.54,3.22,1.18,1.34,2.02,2.88,2.53,4.62.51,1.74.76,3.55.76,5.43v2.09c0,1.56-.12,2.87-.36,3.94-.24,1.07-.6,2.01-1.09,2.82-.48.8-1.07,1.52-1.77,2.13-.7.62-1.5,1.19-2.41,1.73,1.93.91,3.35,2.27,4.26,4.06.91,1.8,1.37,4.19,1.37,7.2v3.22c0,5.04-1.22,8.9-3.66,11.58-2.44,2.68-6.34,4.02-11.7,4.02h-11.18v-57.26ZM255.35,65.31h3.7c2.73,0,4.57-.68,5.51-2.05.94-1.37,1.41-3.36,1.41-5.99s-.52-4.5-1.57-5.79c-1.05-1.29-2.93-1.93-5.67-1.93h-3.38v15.76ZM255.35,90.88h3.54c1.66,0,2.96-.24,3.9-.72.94-.48,1.65-1.15,2.13-2.01.48-.86.78-1.88.88-3.05.11-1.18.16-2.47.16-3.86s-.08-2.7-.24-3.78c-.16-1.07-.5-1.97-1.01-2.69-.51-.72-1.22-1.27-2.13-1.65-.91-.37-2.12-.56-3.62-.56h-3.62v18.33Z"/>
          <path class="cls-3" d="M284.13,41.83h8.2v8.2h-8.2v-8.2ZM284.13,58.31h8.2v40.77h-8.2v-40.77Z"/>
          <path class="cls-3" d="M301.59,71.98c0-1.66.11-3.19.32-4.58.21-1.39.61-2.63,1.2-3.7.97-1.77,2.36-3.19,4.18-4.26,1.82-1.07,3.99-1.61,6.51-1.61s4.69.54,6.52,1.61c1.82,1.07,3.22,2.49,4.18,4.26.59,1.07.99,2.31,1.21,3.7.21,1.39.32,2.92.32,4.58v13.43c0,1.66-.11,3.19-.32,4.58-.21,1.39-.62,2.63-1.21,3.7-.96,1.77-2.36,3.19-4.18,4.26-1.82,1.07-4,1.61-6.52,1.61s-4.69-.54-6.51-1.61c-1.82-1.07-3.22-2.5-4.18-4.26-.59-1.07-.99-2.31-1.2-3.7-.22-1.39-.32-2.92-.32-4.58v-13.43ZM309.79,86.7c0,1.56.36,2.72,1.09,3.5.72.78,1.7,1.17,2.93,1.17s2.21-.39,2.94-1.17c.72-.78,1.08-1.94,1.08-3.5v-16c0-1.55-.36-2.72-1.08-3.5-.72-.78-1.7-1.17-2.94-1.17s-2.21.39-2.93,1.17c-.72.78-1.09,1.94-1.09,3.5v16Z"/>
          <path class="cls-3" d="M335.77,41.83h8.2v24.53h10.13v-24.53h8.2v57.26h-8.2v-25.49h-10.13v25.49h-8.2v-57.26Z"/>
          <path class="cls-3" d="M380.24,81.79v5.55c0,1.29.36,2.28,1.09,2.98.72.7,1.7,1.04,2.93,1.04,1.56,0,2.59-.45,3.1-1.37.51-.91.82-1.82.92-2.73h8.2c0,1.72-.28,3.32-.85,4.83-.56,1.5-1.38,2.79-2.45,3.86-1.07,1.12-2.36,2.01-3.86,2.65-1.5.64-3.19.97-5.07.97-2.52,0-4.69-.54-6.51-1.61-1.82-1.07-3.22-2.5-4.18-4.26-.59-1.07-.99-2.31-1.21-3.7-.21-1.39-.32-2.92-.32-4.58v-13.43c0-1.66.11-3.19.32-4.58.21-1.39.61-2.63,1.21-3.7.97-1.77,2.36-3.19,4.18-4.26,1.82-1.07,3.99-1.61,6.51-1.61,1.88,0,3.58.32,5.11.96,1.53.64,2.82,1.54,3.86,2.69,1.05,1.15,1.85,2.51,2.41,4.06.56,1.56.85,3.22.85,4.99v11.26h-16.25ZM380.24,75.36h8.04v-4.66c0-1.55-.36-2.72-1.08-3.5-.72-.78-1.71-1.17-2.94-1.17s-2.21.39-2.93,1.17c-.72.78-1.09,1.94-1.09,3.5v4.66Z"/>
          <path class="cls-3" d="M405.73,58.31h8.21v4.34c1.66-1.5,3.29-2.68,4.9-3.54,1.61-.86,3.59-1.29,5.95-1.29v8.68c-.8-.32-1.63-.48-2.49-.48s-1.79.15-2.77.44c-.99.3-1.9.79-2.74,1.49-.83.7-1.51,1.61-2.05,2.73-.54,1.13-.8,2.52-.8,4.18v24.21h-8.21v-40.77Z"/>
          <path class="cls-3" d="M431.3,58.31h8.2v3.94h.16c.86-1.29,1.89-2.34,3.1-3.18,1.2-.83,2.75-1.25,4.62-1.25,1.77,0,3.24.43,4.42,1.29,1.18.86,2.15,1.8,2.9,2.82,1.02-1.13,2.14-2.09,3.38-2.9,1.23-.8,2.95-1.21,5.15-1.21,1.02,0,2.06.17,3.14.52,1.07.35,2.04.93,2.89,1.73.86.8,1.56,1.84,2.09,3.1.54,1.26.8,2.8.8,4.62v31.28h-8.2v-28.23c0-1.5-.35-2.68-1.05-3.54-.7-.86-1.69-1.29-2.98-1.29-1.56,0-2.63.48-3.22,1.45-.59.96-.88,2.36-.88,4.18v27.42h-8.2v-28.23c0-1.5-.35-2.68-1.04-3.54-.7-.86-1.69-1.29-2.97-1.29-1.56,0-2.63.48-3.22,1.45-.59.96-.88,2.36-.88,4.18v27.42h-8.2v-40.77Z"/>
          <path class="cls-3" d="M489.61,81.79v5.55c0,1.29.36,2.28,1.08,2.98.72.7,1.7,1.04,2.94,1.04,1.55,0,2.58-.45,3.1-1.37.51-.91.82-1.82.92-2.73h8.2c0,1.72-.28,3.32-.84,4.83-.56,1.5-1.38,2.79-2.45,3.86-1.07,1.12-2.36,2.01-3.86,2.65-1.5.64-3.19.97-5.07.97-2.52,0-4.69-.54-6.51-1.61-1.82-1.07-3.22-2.5-4.18-4.26-.59-1.07-.99-2.31-1.21-3.7-.21-1.39-.32-2.92-.32-4.58v-13.43c0-1.66.11-3.19.32-4.58.21-1.39.62-2.63,1.21-3.7.97-1.77,2.36-3.19,4.18-4.26,1.82-1.07,3.99-1.61,6.51-1.61,1.88,0,3.58.32,5.11.96,1.53.64,2.82,1.54,3.86,2.69,1.04,1.15,1.85,2.51,2.41,4.06.56,1.56.84,3.22.84,4.99v11.26h-16.24ZM489.61,75.36h8.04v-4.66c0-1.55-.36-2.72-1.08-3.5-.72-.78-1.7-1.17-2.94-1.17s-2.21.39-2.94,1.17c-.72.78-1.08,1.94-1.08,3.5v4.66Z"/>
          <path class="cls-3" d="M529.98,69.73c-.06-1.39-.5-2.44-1.33-3.14-.83-.7-1.78-1.04-2.86-1.04-1.29,0-2.28.41-2.98,1.25-.7.83-1.04,1.78-1.04,2.85,0,.75.19,1.49.56,2.21.37.72,1.34,1.38,2.89,1.97l4.83,1.93c3.06,1.18,5.16,2.79,6.31,4.83,1.15,2.04,1.73,4.26,1.73,6.67,0,1.72-.31,3.31-.93,4.78-.62,1.47-1.46,2.77-2.53,3.9-1.07,1.12-2.36,2.01-3.86,2.65-1.5.64-3.13.97-4.91.97-1.61,0-3.14-.27-4.58-.8-1.45-.54-2.72-1.32-3.82-2.33-1.1-1.02-2-2.29-2.7-3.82-.7-1.53-1.07-3.31-1.13-5.35h7.72c.16,1.12.55,2.17,1.17,3.14.62.96,1.7,1.45,3.26,1.45,1.18,0,2.24-.39,3.18-1.17.94-.78,1.41-1.86,1.41-3.26,0-1.13-.29-2.09-.88-2.9-.59-.8-1.66-1.5-3.21-2.09l-3.94-1.45c-2.57-.97-4.6-2.4-6.07-4.3-1.48-1.9-2.21-4.22-2.21-6.96,0-1.72.32-3.31.96-4.79.64-1.47,1.51-2.73,2.61-3.78,1.1-1.04,2.37-1.86,3.82-2.45,1.45-.59,3-.88,4.66-.88s3.2.31,4.62.92c1.42.62,2.64,1.45,3.66,2.49,1.02,1.05,1.82,2.3,2.41,3.78.59,1.48.88,3.04.88,4.7h-7.72Z"/>
        </g>
        <g>
          <path class="cls-1" d="M106.02,81.37l-35.36-11.15,32.51-12.99-.69-3.88c-14.07-2.88-42.57-7.6-42.57-7.6l-17.8-.32-3.75,2.28c9.41,4.91,11.87,19.04,12.16,24.16.45,7.34,1.17,27.14,1.17,27.14l4.71,3.21,50.14-16.58-.53-4.26ZM57.45,66.34l-.38-11.67s3.44-1.4,12.61-1.53c10.89-.17,26.25,2.26,26.25,2.26,0,0,2.1.37,0,1.31-12.54,5.36-29.05,9.01-32.97,9.45-2.01.2-5.52.18-5.52.18ZM96.85,83.73s-1.19.62-15.29,4.12c-18.49,4.74-23.91,2.82-23.91,2.82v-15.5s7.19-.26,13.59.63c6.38.93,24.46,6.19,25.61,6.51,1.7.73,0,1.41,0,1.41Z"/>
          <g>
            <path class="cls-2" d="M94.36,13.93c4.8,0,39.32,0,33.66,0-13.88,35.86-15.43,118.52-15.43,118.52l-1,1.92-1.08-1.83s-1.77-84.35-16.15-118.6Z"/>
            <path class="cls-2" d="M117.44,62.55s21.67,3.77,46.85,3.87v-21h17.97v1.44c-2.53,2.93-10.23,11.54-11.59,26.54-1.2,13.07-1.05,26.2-1.05,26.2l-5.21,3.29v-32.96s-31.01.56-48.28,4.76c-.76-7.92,1.31-12.14,1.31-12.14Z"/>
            <path class="cls-2" d="M0,81.9v-14.46L111.51.38l111.49,67.06v14.46l-111.49,67.15L0,81.9ZM111.51,133.09l106.76-63.87L111.51,4.87,4.73,69.22l106.79,63.87h0Z"/>
          </g>
          <g>
            <path class="cls-4" d="M96.99,21.15s-12.23,4.22-10.75,13.32c1.53,9.13,21.02,10.82,21.02,10.82,0,0,11.92,1.13,15.38,2.6,5.09,2.15,3.97,5.68.72,7.89-1.62,1.11-4.16,1.62-5.14,1.95l-.55,4.37c2.01-.5,7.5-1.53,10.99-4.49,4.4-3.38,4.06-10.88-3.54-13.81-4.42-1.82-15.96-2.86-22.79-4.36-3.25-.58-12.38-3.21-9.15-9.02,2.51-3.48,5.4-3.78,5.4-3.78l-1.6-5.49Z"/>
            <path class="cls-4" d="M115.43,82.48c1.24.38,3.18,1.2,4.08,2.19,2.82,2.88,1.41,5.17-1.03,7.04-1.24.99-3.94,2.27-3.94,2.27l-.24,3.26c1.91-.73,5.37-2.14,7.93-4.32,3.46-2.87,4.13-8.18-.69-11.35-1.08-.74-3.42-1.76-5.66-2.46,0,0-2.79-.91-8.77-2.11-2.89-.47-8.34-2.97-6.21-6.88,1.43-2.39,3.58-3.47,4.85-3.9l-.53-4.16c-1.89.74-9.99,4.09-9.15,10.62.6,4.85,7.43,7.15,11.35,7.94,3.89.67,6.74,1.46,8,1.85Z"/>
            <path class="cls-4" d="M141.16,29.12c-.62-.81-2.22-2.76-2.22-2.76,0,0-3.82-1.09-5.66-1.95-3.13-1.54-5.9-2.44-7.79-2.98l-1.41,5.06c2.53.84,5.52,2.14,7.41,3.41,1.84,1.24,3.51,2.87,3.51,2.87l5.26.78s.72-.79,1.08-1.56l-.17-2.86ZM136.17,29.63l-.64-1.59,2.05.53.38,1.32-1.79-.26Z"/>
            <path class="cls-4" d="M108.7,96.68s-5.18,2.35-4.92,7.53c.36,4.53,6.74,7.46,7.55,7.88.81.36,4.11,1.91,3.99,4.59,0,1.48-.67,3.02-2.32,4.09l-.12,1.87s4.23-2.16,4.44-6.16c-.12-4.04-3.85-5.86-5.81-6.9-2.39-1.29-4.75-3.44-4.75-5.85,0-2.58,2.15-3.83,2.15-3.83l-.22-3.22Z"/>
          </g>
        </g>
      </g>
    </g>
  </g>
</svg>